<svg xmlns="http://www.w3.org/2000/svg" width="1280" height="800" viewBox="0 0 1280 800" fill="none">
  <defs>
    <linearGradient id="bg" x1="140" y1="75" x2="1120" y2="740" gradientUnits="userSpaceOnUse">
      <stop stop-color="#111827"/>
      <stop offset="1" stop-color="#0369A1"/>
    </linearGradient>
  </defs>
  <rect width="1280" height="800" fill="url(#bg)"/>
  <rect x="110" y="110" width="1060" height="580" rx="28" fill="#090E18" fill-opacity="0.74"/>
  <rect x="150" y="170" width="280" height="480" rx="22" fill="#0F172A"/>
  <circle cx="200" cy="230" r="22" fill="#60A5FA"/>
  <rect x="235" y="218" width="150" height="18" rx="8" fill="#93C5FD"/>
  <circle cx="200" cy="305" r="22" fill="#22D3EE"/>
  <rect x="235" y="293" width="150" height="18" rx="8" fill="#67E8F9"/>
  <circle cx="200" cy="380" r="22" fill="#34D399"/>
  <rect x="235" y="368" width="150" height="18" rx="8" fill="#86EFAC"/>
  <rect x="460" y="170" width="700" height="480" rx="22" fill="#EAF3FF"/>
  <rect x="500" y="230" width="260" height="80" rx="16" fill="#CFE3FF"/>
  <rect x="860" y="340" width="260" height="80" rx="16" fill="#DDFCF0"/>
  <rect x="500" y="450" width="350" height="80" rx="16" fill="#D9E8FF"/>
  <rect x="500" y="560" width="620" height="45" rx="12" fill="#BECFFF"/>
  <text x="150" y="95" fill="#F8FAFC" font-family="Syne, sans-serif" font-size="42" font-weight="700">ConnectSpace Chat App</text>
</svg>
