<svg xmlns="http://www.w3.org/2000/svg" width="1280" height="800" viewBox="0 0 1280 800" fill="none">
  <defs>
    <linearGradient id="bg" x1="120" y1="90" x2="1130" y2="760" gradientUnits="userSpaceOnUse">
      <stop stop-color="#312E81"/>
      <stop offset="1" stop-color="#0F766E"/>
    </linearGradient>
  </defs>
  <rect width="1280" height="800" fill="url(#bg)"/>
  <rect x="110" y="110" width="1060" height="580" rx="28" fill="#0A1326" fill-opacity="0.75"/>
  <rect x="150" y="170" width="620" height="480" rx="22" fill="#EFF4FF"/>
  <rect x="190" y="220" width="540" height="42" rx="10" fill="#C4D5FF"/>
  <rect x="190" y="290" width="500" height="18" rx="8" fill="#B6C9FF"/>
  <rect x="190" y="324" width="420" height="18" rx="8" fill="#C8D6FF"/>
  <rect x="190" y="358" width="460" height="18" rx="8" fill="#D7E2FF"/>
  <rect x="190" y="410" width="180" height="45" rx="10" fill="#5B7CFA"/>
  <rect x="810" y="170" width="350" height="230" rx="22" fill="#E6FFF6"/>
  <rect x="850" y="220" width="270" height="22" rx="8" fill="#8DE8C8"/>
  <rect x="850" y="258" width="190" height="16" rx="8" fill="#B6F1DC"/>
  <rect x="810" y="420" width="350" height="230" rx="22" fill="#EEF1FF"/>
  <rect x="850" y="470" width="240" height="22" rx="8" fill="#B3BEFF"/>
  <rect x="850" y="508" width="150" height="16" rx="8" fill="#CFD5FF"/>
  <text x="150" y="95" fill="#F8FAFC" font-family="Syne, sans-serif" font-size="42" font-weight="700">Content Studio Assistant</text>
</svg>
