<svg xmlns="http://www.w3.org/2000/svg" width="1280" height="800" viewBox="0 0 1280 800" fill="none">
  <defs>
    <linearGradient id="bg" x1="130" y1="60" x2="1120" y2="760" gradientUnits="userSpaceOnUse">
      <stop stop-color="#0B7285"/>
      <stop offset="1" stop-color="#4338CA"/>
    </linearGradient>
  </defs>
  <rect width="1280" height="800" fill="url(#bg)"/>
  <rect x="110" y="110" width="1060" height="580" rx="28" fill="#0A1020" fill-opacity="0.72"/>
  <rect x="150" y="170" width="1010" height="95" rx="16" fill="#1D2D50"/>
  <rect x="190" y="205" width="220" height="22" rx="8" fill="#6CE7D2"/>
  <rect x="150" y="295" width="490" height="355" rx="20" fill="#E7F8FF"/>
  <path d="M200 560L280 505L360 530L450 450L540 475" stroke="#2C7BE5" stroke-width="16" stroke-linecap="round" stroke-linejoin="round"/>
  <circle cx="200" cy="560" r="11" fill="#2C7BE5"/>
  <circle cx="280" cy="505" r="11" fill="#2C7BE5"/>
  <circle cx="360" cy="530" r="11" fill="#2C7BE5"/>
  <circle cx="450" cy="450" r="11" fill="#2C7BE5"/>
  <circle cx="540" cy="475" r="11" fill="#2C7BE5"/>
  <rect x="670" y="295" width="490" height="165" rx="20" fill="#E9FFF6"/>
  <rect x="700" y="330" width="430" height="22" rx="8" fill="#9AE9CA"/>
  <rect x="700" y="368" width="300" height="16" rx="8" fill="#C4F2DF"/>
  <rect x="670" y="485" width="490" height="165" rx="20" fill="#EEF0FF"/>
  <rect x="700" y="520" width="360" height="22" rx="8" fill="#AEBBFF"/>
  <rect x="700" y="558" width="240" height="16" rx="8" fill="#CBD3FF"/>
  <text x="150" y="95" fill="#F8FAFC" font-family="Syne, sans-serif" font-size="42" font-weight="700">FinTrack Dashboard</text>
</svg>
