<svg xmlns="http://www.w3.org/2000/svg" width="1280" height="800" viewBox="0 0 1280 800" fill="none">
  <defs>
    <linearGradient id="bg" x1="132" y1="84" x2="1148" y2="740" gradientUnits="userSpaceOnUse">
      <stop stop-color="#1E3A8A"/>
      <stop offset="1" stop-color="#059669"/>
    </linearGradient>
  </defs>
  <rect width="1280" height="800" fill="url(#bg)"/>
  <rect x="110" y="110" width="1060" height="580" rx="28" fill="#0B1220" fill-opacity="0.7"/>
  <rect x="150" y="170" width="410" height="480" rx="22" fill="#EEF4FF"/>
  <rect x="185" y="210" width="340" height="230" rx="16" fill="#D8E6FF"/>
  <rect x="185" y="470" width="180" height="26" rx="8" fill="#AFC7FF"/>
  <rect x="185" y="510" width="260" height="18" rx="8" fill="#C5D6FF"/>
  <rect x="600" y="170" width="530" height="210" rx="22" fill="#E5FFF6"/>
  <rect x="640" y="220" width="230" height="26" rx="8" fill="#8DE4C5"/>
  <rect x="640" y="262" width="430" height="18" rx="8" fill="#BAF2DF"/>
  <rect x="600" y="410" width="250" height="240" rx="22" fill="#DDF4FF"/>
  <rect x="880" y="410" width="250" height="240" rx="22" fill="#EAFCE9"/>
  <text x="150" y="95" fill="#F8FAFC" font-family="Syne, sans-serif" font-size="42" font-weight="700">ShopFlow Commerce UI</text>
</svg>
